Coordinates
version=1
nRows=23
nColumns=34
inDegrees=no

Units are S.I. units (second, meters, Newtons, ...)
If the header above contains a line with 'inDegrees', this indicates whether rotational values are in degrees (yes) or radians (no).

endheader
time	pelvis_tilt	pelvis_list	pelvis_rotation	pelvis_tx	pelvis_ty	pelvis_tz	hip_flexion_r	hip_adduction_r	hip_rotation_r	knee_angle_r	ankle_angle_r	subtalar_angle_r	mtp_angle_r	hip_flexion_l	hip_adduction_l	hip_rotation_l	knee_angle_l	ankle_angle_l	subtalar_angle_l	mtp_angle_l	lumbar_extension	lumbar_bending	lumbar_rotation	arm_flex_r	arm_add_r	arm_rot_r	elbow_flex_r	pro_sup_r	arm_flex_l	arm_add_l	arm_rot_l	elbow_flex_l	pro_sup_l
0.6	-0.374537	-0.00528498	0.00659784	-1.13982	1.15338	-0.576128	0.809748	-0.0281127	-0.0159668	0.988966	0.671362	-0.0693527	0	0.867858	-0.0812817	-0.0221046	1.06101	0.587708	0.00346965	0	-0.332944	0.0630597	-0.0550749	0.451297	-0.203279	0.122654	0.740566	1.94678	0.402482	-0.137142	0.0697763	0.627965	1.91729
0.61	-0.375432	-0.00542864	0.00490657	-1.13838	1.1479	-0.57607	0.820908	-0.0262492	-0.0094994	1.01383	0.681659	-0.087691	0	0.88273	-0.0844924	-0.0181655	1.09166	0.585481	-0.0215464	0	-0.338344	0.063245	-0.0532156	0.511065	-0.196302	0.141842	0.755465	1.94341	0.461654	-0.135427	0.0883333	0.65993	1.91866
0.62	-0.376255	-0.005997	0.00284396	-1.13655	1.14254	-0.575935	0.830934	-0.0236896	-0.00346005	1.0376	0.690684	-0.106076	0	0.896946	-0.0890294	-0.0137681	1.1222	0.582468	-0.0439327	0	-0.34252	0.0632935	-0.0512051	0.572991	-0.187648	0.156221	0.768187	1.94718	0.521083	-0.13454	0.108619	0.695973	1.9176
0.63	-0.376748	-0.00623916	0.000631193	-1.1343	1.13734	-0.575839	0.839746	-0.0217758	0.00219455	1.06078	0.699493	-0.123305	0	0.90931	-0.0929314	-0.0086652	1.15118	0.579158	-0.0660393	0	-0.345825	0.0627796	-0.049491	0.636039	-0.177384	0.163429	0.780116	1.96423	0.580611	-0.13593	0.131941	0.735756	1.91992
0.64	-0.377653	-0.00580969	-0.00213583	-1.13168	1.13225	-0.575754	0.848141	-0.0199412	0.00891002	1.08318	0.708196	-0.140797	0	0.920089	-0.0957758	-0.00456608	1.17754	0.575325	-0.0931195	0	-0.34745	0.0614116	-0.0467425	0.697988	-0.166523	0.166796	0.794947	1.9912	0.641144	-0.137606	0.155262	0.776507	1.93126
0.65	-0.380169	-0.00578438	-0.00591169	-1.12872	1.12725	-0.575597	0.856635	-0.0158083	0.0173881	1.10336	0.716448	-0.159181	0	0.930745	-0.100252	-0.00280826	1.20166	0.573611	-0.120349	0	-0.345758	0.0602392	-0.0416357	0.758365	-0.156814	0.174094	0.813866	2.00722	0.703443	-0.135201	0.169156	0.812958	1.95774
0.66	-0.384242	-0.00642061	-0.0106125	-1.12534	1.12244	-0.575374	0.864923	-0.00896731	0.0273467	1.1209	0.723076	-0.178878	0	0.941212	-0.106726	-0.00200197	1.22394	0.574089	-0.142509	0	-0.340704	0.0594706	-0.0349647	0.818166	-0.149089	0.187453	0.834921	2.01118	0.766389	-0.129219	0.173545	0.845388	1.99686
0.67	-0.388228	-0.006283	-0.0151753	-1.12141	1.118	-0.575143	0.871598	-0.00311735	0.0367462	1.13686	0.729383	-0.19681	0	0.949072	-0.111923	-0.000829675	1.24356	0.574915	-0.160336	0	-0.334297	0.0576895	-0.0289295	0.877315	-0.142086	0.202333	0.858138	2.0125	0.828086	-0.125323	0.181859	0.880544	2.03486
0.68	-0.391445	-0.00481635	-0.0189716	-1.11687	1.11408	-0.574879	0.876004	-0.000833745	0.0433043	1.15159	0.737325	-0.209775	0	0.953406	-0.114494	0.000251259	1.25988	0.575678	-0.176912	0	-0.327316	0.0543686	-0.0239102	0.934773	-0.134989	0.215703	0.884622	2.01763	0.888427	-0.125718	0.201644	0.920659	2.05818
0.69	-0.394962	-0.00344103	-0.022547	-1.1118	1.11071	-0.574583	0.878821	0.00023403	0.0473437	1.16397	0.745498	-0.219601	0	0.956037	-0.116591	0.00109328	1.27352	0.576493	-0.192936	0	-0.318397	0.0509712	-0.0187473	0.990305	-0.130165	0.232526	0.914108	2.02391	0.948182	-0.12692	0.22441	0.960329	2.07634
0.7	-0.399357	-0.00322089	-0.0256689	-1.10616	1.10788	-0.574412	0.879763	0.00312038	0.0513186	1.17237	0.752665	-0.228697	0	0.958023	-0.11874	0.0030826	1.28492	0.577014	-0.206765	0	-0.306783	0.0489822	-0.0138777	1.04416	-0.128906	0.25527	0.945889	2.02586	1.00687	-0.127315	0.245644	0.997883	2.09
0.71	-0.404069	-0.00331587	-0.0276166	-1.09991	1.10569	-0.574377	0.877818	0.0082189	0.0576514	1.17622	0.758341	-0.239385	0	0.958495	-0.11913	0.00654224	1.29352	0.575664	-0.219336	0	-0.293132	0.0478241	-0.0100743	1.09576	-0.128623	0.27708	0.979825	2.02359	1.06396	-0.128799	0.270329	1.03586	2.09
0.72	-0.408336	-0.00266266	-0.0288363	-1.093	1.10433	-0.574282	0.872845	0.0134066	0.065123	1.17673	0.762427	-0.249997	0	0.956148	-0.117976	0.00915564	1.29868	0.57245	-0.230382	0	-0.278341	0.0459178	-0.00640122	1.14407	-0.128413	0.294369	1.01625	2.02004	1.11989	-0.131377	0.297873	1.07201	2.09
0.73	-0.411751	-0.00125561	-0.0299605	-1.08542	1.10392	-0.574115	0.865044	0.0162508	0.0701661	1.17473	0.764848	-0.255573	0	0.950194	-0.116749	0.0088695	1.30009	0.569001	-0.237286	0	-0.262872	0.0427111	-0.00239346	1.18889	-0.13082	0.312263	1.05545	2.01295	1.17449	-0.133431	0.324851	1.10445	2.09
0.74	-0.414839	0.000415439	-0.0306346	-1.0771	1.10453	-0.574029	0.854228	0.0168124	0.0719824	1.16864	0.765787	-0.254405	0	0.940749	-0.115339	0.00611481	1.29697	0.566724	-0.237991	0	-0.246106	0.0391492	0.000622146	1.23035	-0.135383	0.332101	1.09605	1.99986	1.22555	-0.135647	0.34926	1.13565	2.09
0.75	-0.41859	0.00220737	-0.030356	-1.06789	1.10621	-0.574072	0.840563	0.0165695	0.0725323	1.157	0.764726	-0.250058	0	0.928131	-0.11301	0.00138258	1.28807	0.56609	-0.231954	0	-0.226726	0.0364159	0.00185332	1.26763	-0.138721	0.348902	1.13599	1.98515	1.27063	-0.138972	0.369687	1.16758	2.09
0.76	-0.422253	0.00429948	-0.0286707	-1.05778	1.10905	-0.574304	0.823837	0.0145223	0.071499	1.14129	0.760741	-0.244277	0	0.911105	-0.109255	-0.00588344	1.27256	0.567174	-0.219729	0	-0.205289	0.0343513	0.00182283	1.29955	-0.141853	0.361722	1.17596	1.97262	1.31008	-0.14091	0.384975	1.19688	2.09
0.77	-0.423464	0.00634255	-0.0256618	-1.04691	1.1131	-0.574777	0.802293	0.00975375	0.0670976	1.12263	0.753329	-0.235183	0	0.887684	-0.104403	-0.0150407	1.251	0.569573	-0.201843	0	-0.18453	0.0319754	0.00152231	1.32605	-0.149024	0.373746	1.21795	1.96004	1.34604	-0.139908	0.39867	1.22091	2.09
0.78	-0.421538	0.00769023	-0.0226721	-1.03536	1.11837	-0.575305	0.774792	0.00477715	0.0605646	1.09955	0.741595	-0.222089	0	0.857778	-0.100195	-0.0247955	1.22434	0.572361	-0.176627	0	-0.16552	0.0293744	0.00175544	1.34749	-0.159953	0.385729	1.26143	1.94192	1.3783	-0.139508	0.41558	1.24312	2.09
0.79	-0.419016	0.00841951	-0.0203047	-1.02296	1.12484	-0.575729	0.744146	0.00103384	0.0539244	1.07213	0.722736	-0.206552	0	0.824239	-0.0972204	-0.0348467	1.19265	0.572153	-0.145176	0	-0.145124	0.0278291	0.00215012	1.36318	-0.170951	0.396271	1.30377	1.92702	1.40302	-0.142053	0.432351	1.26716	2.09
0.8	-0.416795	0.00892963	-0.0176887	-1.00965	1.13249	-0.576119	0.712828	-0.0033121	0.0462355	1.04325	0.695058	-0.188452	0	0.788047	-0.0946734	-0.0454618	1.15558	0.568041	-0.10762	0	-0.12203	0.0277589	0.00208483	1.37273	-0.182492	0.408582	1.34662	1.89694	1.41812	-0.144674	0.442284	1.29144	2.09
0.81	-0.413491	0.00951083	-0.0146349	-0.995689	1.14126	-0.576498	0.681144	-0.00860147	0.0374353	1.01475	0.656224	-0.172964	0	0.748561	-0.0918392	-0.056417	1.11373	0.557653	-0.0677004	0	-0.0985991	0.027806	0.00128271	1.37736	-0.196148	0.420629	1.38716	1.89635	1.42654	-0.147422	0.448042	1.31464	2.09
0.82	-0.407425	0.0103146	-0.0123051	-0.981332	1.15113	-0.576745	0.64827	-0.0133751	0.0292584	0.986771	0.604716	-0.164146	0	0.704597	-0.0893238	-0.0680747	1.06796	0.540876	-0.0248669	0	-0.0780235	0.0267502	-0.00021376	1.37903	-0.211813	0.43487	1.42679	1.89368	1.43227	-0.15408	0.455964	1.33763	2.09
